<?xml version="1.0" encoding="UTF-8" standalone="no"?>
<!-- Created with Inkscape (http://www.inkscape.org/) -->

<svg
   width="161.83766mm"
   height="99.993996mm"
   viewBox="0 0 6.4735068 3.99976"
   version="1.1"
   id="svg5"
   inkscape:version="1.2.1 (9c6d41e410, 2022-07-14)"
   sodipodi:docname="spot.svg"
   xmlns:inkscape="http://www.inkscape.org/namespaces/inkscape"
   xmlns:sodipodi="http://sodipodi.sourceforge.net/DTD/sodipodi-0.dtd"
   xmlns="http://www.w3.org/2000/svg"
   xmlns:svg="http://www.w3.org/2000/svg">
  <sodipodi:namedview
     id="namedview7"
     pagecolor="#ffffff"
     bordercolor="#000000"
     borderopacity="0.25"
     inkscape:showpageshadow="2"
     inkscape:pageopacity="0.0"
     inkscape:pagecheckerboard="0"
     inkscape:deskcolor="#d1d1d1"
     inkscape:document-units="mm"
     showgrid="false"
     showguides="false"
     inkscape:zoom="0.5607764"
     inkscape:cx="-49.930774"
     inkscape:cy="-148.00908"
     inkscape:window-width="1858"
     inkscape:window-height="1057"
     inkscape:window-x="-8"
     inkscape:window-y="-8"
     inkscape:window-maximized="1"
     inkscape:current-layer="layer1" />
  <defs
     id="defs2" />
  <g
     inkscape:label="Layer 1"
     inkscape:groupmode="layer"
     id="layer1"
     transform="translate(-65.642505,-112.03812)">
    <path
       id="path19348-4-2-3"
       style="fill:#ffffff;stroke-width:0.9016"
       d="m 69.187508,112.03812 a 2,2 0 0 0 -2.000395,1.99988 2,2 0 0 0 0.363286,1.14773 v -1.94096 h 0.42323 v 0.13229 c 0.09313,-0.10725 0.231557,-0.17208 0.420646,-0.17208 0.36971,0 0.674377,0.32466 0.674377,0.74517 0,0.42051 -0.304667,0.74517 -0.674377,0.74517 -0.189089,0 -0.327513,-0.0648 -0.420646,-0.17208 v 0.69712 h -0.397392 a 2,2 0 0 0 1.611271,0.81752 2,2 0 0 0 1.999878,-1.99988 2,2 0 0 0 -1.999878,-1.99988 z m -1.611271,3.18224 a 2,2 0 0 1 -0.02584,-0.0346 v 0.0346 z m -1.188558,-2.57969 c -0.341488,0 -0.663525,0.22 -0.663525,0.601 0,0.37817 0.287849,0.51915 0.58136,0.60099 0.296332,0.0819 0.409277,0.13031 0.409277,0.25167 0,0.0762 -0.0532,0.16071 -0.267684,0.16071 -0.222955,0 -0.344406,-0.11019 -0.414962,-0.27388 l -0.38964,0.22582 c 0.110066,0.29069 0.375267,0.48834 0.790133,0.48834 0.428977,0 0.733805,-0.22568 0.733805,-0.60668 0,-0.41768 -0.335948,-0.52257 -0.635103,-0.61288 -0.307622,-0.0931 -0.355534,-0.15515 -0.355534,-0.24546 0,-0.079 0.07076,-0.14935 0.211873,-0.14935 0.180622,0 0.273848,0.0873 0.341581,0.22841 l 0.380856,-0.22272 c -0.143934,-0.29069 -0.397882,-0.44597 -0.722437,-0.44597 z m 5.437911,0.20877 -0.42323,0.12713 v 0.2682 h -0.225826 v 0.40617 h 0.225826 v 0.49972 c 0,0.39511 0.160497,0.56132 0.713652,0.50487 v -0.38344 c -0.186267,0.0113 -0.290422,-8e-5 -0.290422,-0.12143 v -0.49972 h 0.290422 v -0.40617 H 71.82559 Z m -1.668115,0.35554 c 0.414866,0 0.748275,0.32466 0.748275,0.74517 0,0.42051 -0.333409,0.74517 -0.748275,0.74517 -0.414866,0 -0.747758,-0.32466 -0.747758,-0.74517 0,-0.42051 0.332892,-0.74517 0.747758,-0.74517 z m -1.847949,0.40101 c -0.194733,0 -0.335897,0.13249 -0.335897,0.34416 0,0.21167 0.141164,0.34417 0.335897,0.34417 0.194733,0 0.335896,-0.1325 0.335896,-0.34417 0,-0.21167 -0.141163,-0.34416 -0.335896,-0.34416 z m 1.847949,0.0114 c -0.183444,0 -0.324528,0.13242 -0.324528,0.3328 0,0.20038 0.141084,0.3328 0.324528,0.3328 0.183444,0 0.325045,-0.13242 0.325045,-0.3328 0,-0.20038 -0.141601,-0.3328 -0.325045,-0.3328 z" />
  </g>
</svg>
